<?xml version="1.0" encoding="UTF-8"?> <svg xmlns="http://www.w3.org/2000/svg" width="176" height="45" viewBox="0 0 176 45" fill="none"><path d="M19.2736 38.175C15.6319 38.175 12.3337 37.3621 9.37914 35.7361C6.4589 34.0748 4.15705 31.7949 2.47362 28.8964C0.82454 25.9979 0 22.7283 0 19.0875C0 15.4468 0.841718 12.1771 2.52515 9.27866C4.20859 6.38018 6.51043 4.11796 9.43067 2.49198C12.3853 0.830661 15.6834 0 19.3252 0C22.2798 0 24.9767 0.530209 27.4159 1.59063C29.8552 2.65105 31.9166 4.18865 33.6 6.20344C31.2144 8.51182 27.4864 8.15358 24.4344 6.93163C22.9571 6.34013 21.3571 6.04438 19.6344 6.04438C17.1607 6.04438 14.9448 6.60994 12.9865 7.74105C11.0282 8.83682 9.49939 10.3744 8.4 12.3539C7.30061 14.3333 6.75092 16.5779 6.75092 19.0875C6.75092 21.5972 7.30061 23.8417 8.4 25.8212C9.49939 27.8006 11.0282 29.3559 12.9865 30.487C14.9448 31.5828 17.1607 32.1307 19.6344 32.1307C20.9279 32.1307 22.1522 31.9619 23.3073 31.6244C26.5409 30.6795 30.7792 31.3133 32.1149 34.487L33.2154 37.1022C33.4507 37.6611 33.3775 38.4332 32.7926 38.5272C31.2658 38.7727 29.4564 35.6876 27.3644 36.5844C24.9252 37.6448 22.2282 38.175 19.2736 38.175Z" fill="#11253E"></path><path d="M19.1107 20.6019C19.1107 23.4312 17.2254 22.1589 14.8999 22.1589C12.5743 22.1589 10.689 23.4312 10.689 20.6019C10.689 17.7726 12.5743 15.479 14.8999 15.479C17.2254 15.479 19.1107 17.7726 19.1107 20.6019Z" fill="#11253E"></path><path d="M30.4476 20.6932C30.4476 23.5729 28.5623 22.2908 26.2367 22.2908C23.9111 22.2908 22.0259 23.5729 22.0259 20.6932C22.0259 17.8134 23.9111 15.479 26.2367 15.479C28.5623 15.479 30.4476 17.8134 30.4476 20.6932Z" fill="#11253E"></path><path d="M48.4179 35.54C46.4739 35.54 44.6289 35.234 42.8829 34.622C41.1549 33.992 39.6969 33.011 38.5089 31.679C37.3389 30.347 36.6009 28.628 36.2949 26.522H42.0729C42.3249 27.548 42.7659 28.385 43.3959 29.033C44.0439 29.681 44.7999 30.158 45.6639 30.464C46.5459 30.752 47.4549 30.896 48.3909 30.896C50.0649 30.896 51.4149 30.608 52.4409 30.032C53.4669 29.456 53.9799 28.565 53.9799 27.359C53.9799 26.477 53.6919 25.775 53.1159 25.253C52.5579 24.731 51.6399 24.335 50.3619 24.065L45.0699 22.85C42.6939 22.328 40.7949 21.464 39.3729 20.258C37.9509 19.052 37.2309 17.351 37.2129 15.155C37.1949 13.499 37.6089 12.023 38.4549 10.727C39.3009 9.43099 40.5609 8.41399 42.2349 7.67599C43.9089 6.91999 45.9699 6.54199 48.4179 6.54199C51.6759 6.54199 54.2859 7.27099 56.2479 8.72899C58.2279 10.169 59.2449 12.23 59.2989 14.912H53.7099C53.5119 13.706 52.9449 12.77 52.0089 12.104C51.0729 11.42 49.8579 11.078 48.3639 11.078C46.8159 11.078 45.5469 11.375 44.5569 11.969C43.5669 12.563 43.0719 13.472 43.0719 14.696C43.0719 15.542 43.4409 16.208 44.1789 16.694C44.9349 17.18 46.0779 17.594 47.6079 17.936L52.6299 19.151C54.0699 19.511 55.2489 19.997 56.1669 20.609C57.0849 21.221 57.7959 21.896 58.2999 22.634C58.8219 23.354 59.1819 24.101 59.3799 24.875C59.5959 25.631 59.7039 26.333 59.7039 26.981C59.7039 28.781 59.2359 30.32 58.2999 31.598C57.3819 32.858 56.0769 33.83 54.3849 34.514C52.7109 35.198 50.7219 35.54 48.4179 35.54Z" fill="#11253E"></path><path d="M74.8551 35.54C73.4871 35.54 72.1641 35.342 70.8861 34.946C69.6261 34.532 68.4921 33.938 67.4841 33.164C66.4761 32.372 65.6751 31.4 65.0811 30.248C64.4871 29.096 64.1901 27.755 64.1901 26.225V7.08199H70.7781V25.469C70.7781 26.981 71.2551 28.223 72.2091 29.195C73.1811 30.167 74.6391 30.653 76.5831 30.653C78.3471 30.653 79.7601 30.194 80.8221 29.276C81.8841 28.34 82.4151 26.999 82.4151 25.253V7.08199H88.9491V35H83.9001L83.1711 29.546C82.8291 31.076 82.2261 32.282 81.3621 33.164C80.5161 34.028 79.5171 34.64 78.3651 35C77.2311 35.36 76.0611 35.54 74.8551 35.54Z" fill="#11253E"></path><path d="M102.874 35L92.56 7.08199H98.581L105.277 26.63H105.628L112.297 7.08199H118.345L108.058 35H102.874Z" fill="#11253E"></path><path d="M130.323 35L120.009 7.08199H126.03L132.726 26.63H133.077L139.746 7.08199H145.794L135.507 35H130.323Z" fill="#11253E"></path><path d="M153.858 43.91C152.058 43.91 150.807 43.766 150.105 43.478C149.403 43.208 149.052 43.073 149.052 43.073V38.861L151.86 38.942C152.994 38.996 153.912 38.933 154.614 38.753C155.334 38.573 155.892 38.321 156.288 37.997C156.684 37.691 156.972 37.358 157.152 36.998C157.35 36.656 157.503 36.359 157.611 36.107L158.34 34.055L147.459 7.08199H153.993L161.418 26.819L168.816 7.08199H175.242L163.74 36.026C162.876 38.132 161.94 39.752 160.932 40.886C159.942 42.038 158.853 42.83 157.665 43.262C156.495 43.694 155.226 43.91 153.858 43.91Z" fill="#11253E"></path><path d="M48.4179 35.54C46.4739 35.54 44.6289 35.234 42.8829 34.622C41.1549 33.992 39.6969 33.011 38.5089 31.679C37.3389 30.347 36.6009 28.628 36.2949 26.522H42.0729C42.3249 27.548 42.7659 28.385 43.3959 29.033C44.0439 29.681 44.7999 30.158 45.6639 30.464C46.5459 30.752 47.4549 30.896 48.3909 30.896C50.0649 30.896 51.4149 30.608 52.4409 30.032C53.4669 29.456 53.9799 28.565 53.9799 27.359C53.9799 26.477 53.6919 25.775 53.1159 25.253C52.5579 24.731 51.6399 24.335 50.3619 24.065L45.0699 22.85C42.6939 22.328 40.7949 21.464 39.3729 20.258C37.9509 19.052 37.2309 17.351 37.2129 15.155C37.1949 13.499 37.6089 12.023 38.4549 10.727C39.3009 9.43099 40.5609 8.41399 42.2349 7.67599C43.9089 6.91999 45.9699 6.54199 48.4179 6.54199C51.6759 6.54199 54.2859 7.27099 56.2479 8.72899C58.2279 10.169 59.2449 12.23 59.2989 14.912H53.7099C53.5119 13.706 52.9449 12.77 52.0089 12.104C51.0729 11.42 49.8579 11.078 48.3639 11.078C46.8159 11.078 45.5469 11.375 44.5569 11.969C43.5669 12.563 43.0719 13.472 43.0719 14.696C43.0719 15.542 43.4409 16.208 44.1789 16.694C44.9349 17.18 46.0779 17.594 47.6079 17.936L52.6299 19.151C54.0699 19.511 55.2489 19.997 56.1669 20.609C57.0849 21.221 57.7959 21.896 58.2999 22.634C58.8219 23.354 59.1819 24.101 59.3799 24.875C59.5959 25.631 59.7039 26.333 59.7039 26.981C59.7039 28.781 59.2359 30.32 58.2999 31.598C57.3819 32.858 56.0769 33.83 54.3849 34.514C52.7109 35.198 50.7219 35.54 48.4179 35.54Z" stroke="#11253E" stroke-width="0.3"></path><path d="M74.8551 35.54C73.4871 35.54 72.1641 35.342 70.8861 34.946C69.6261 34.532 68.4921 33.938 67.4841 33.164C66.4761 32.372 65.6751 31.4 65.0811 30.248C64.4871 29.096 64.1901 27.755 64.1901 26.225V7.08199H70.7781V25.469C70.7781 26.981 71.2551 28.223 72.2091 29.195C73.1811 30.167 74.6391 30.653 76.5831 30.653C78.3471 30.653 79.7601 30.194 80.8221 29.276C81.8841 28.34 82.4151 26.999 82.4151 25.253V7.08199H88.9491V35H83.9001L83.1711 29.546C82.8291 31.076 82.2261 32.282 81.3621 33.164C80.5161 34.028 79.5171 34.64 78.3651 35C77.2311 35.36 76.0611 35.54 74.8551 35.54Z" stroke="#11253E" stroke-width="0.3"></path><path d="M102.874 35L92.56 7.08199H98.581L105.277 26.63H105.628L112.297 7.08199H118.345L108.058 35H102.874Z" stroke="#11253E" stroke-width="0.3"></path><path d="M130.323 35L120.009 7.08199H126.03L132.726 26.63H133.077L139.746 7.08199H145.794L135.507 35H130.323Z" stroke="#11253E" stroke-width="0.3"></path><path d="M153.858 43.91C152.058 43.91 150.807 43.766 150.105 43.478C149.403 43.208 149.052 43.073 149.052 43.073V38.861L151.86 38.942C152.994 38.996 153.912 38.933 154.614 38.753C155.334 38.573 155.892 38.321 156.288 37.997C156.684 37.691 156.972 37.358 157.152 36.998C157.35 36.656 157.503 36.359 157.611 36.107L158.34 34.055L147.459 7.08199H153.993L161.418 26.819L168.816 7.08199H175.242L163.74 36.026C162.876 38.132 161.94 39.752 160.932 40.886C159.942 42.038 158.853 42.83 157.665 43.262C156.495 43.694 155.226 43.91 153.858 43.91Z" stroke="#11253E" stroke-width="0.3"></path></svg> 